<?xml version="1.0" standalone="no"?>
<!DOCTYPE svg PUBLIC "-//W3C//DTD SVG 20010904//EN"
 "http://www.w3.org/TR/2001/REC-SVG-20010904/DTD/svg10.dtd">
<svg version="1.0" xmlns="http://www.w3.org/2000/svg"
 width="700.000000pt" height="700.000000pt" viewBox="0 0 700.000000 700.000000"
 preserveAspectRatio="xMidYMid meet">
<metadata>
Created by potrace 1.14, written by Peter Selinger 2001-2017
</metadata>
<g transform="translate(0.000000,700.000000) scale(0.100000,-0.100000)"
fill="#000000" stroke="none">
<path d="M3951 5759 c-30 -18 -61 -65 -61 -92 0 -16 -29 -45 -62 -61 -11 -6
-31 -24 -42 -39 -21 -28 -21 -36 -20 -543 0 -283 -1 -514 -3 -514 -2 0 -25 11
-51 24 -102 51 -245 63 -361 31 -33 -10 -130 -59 -227 -115 l-169 -99 -5 84
c-3 46 -7 85 -10 88 -3 2 -31 19 -63 37 -52 29 -60 31 -88 20 -25 -11 -36 -10
-68 5 -37 16 -41 16 -69 0 -27 -16 -83 -95 -67 -95 17 0 -20 -42 -54 -61 -57
-32 -64 -55 -67 -209 -2 -74 -3 -140 -3 -146 -1 -12 -413 -254 -432 -254 -6 0
-28 -13 -48 -28 -20 -16 -90 -60 -156 -98 -66 -38 -127 -73 -136 -79 -9 -5
-32 -19 -50 -29 -19 -10 -142 -82 -274 -159 -132 -77 -256 -149 -275 -159
-212 -120 -279 -173 -281 -221 -5 -148 -3 -264 7 -292 11 -33 55 -78 98 -100
24 -13 378 -217 481 -278 39 -23 81 -48 95 -55 54 -29 306 -176 332 -193 15
-11 29 -19 32 -19 2 0 87 -48 188 -106 101 -58 201 -116 223 -129 22 -13 81
-46 130 -75 50 -29 106 -62 125 -73 19 -10 80 -45 135 -77 55 -32 116 -67 136
-78 20 -11 69 -40 110 -64 221 -132 407 -233 462 -250 72 -22 170 -26 250 -9
74 16 117 34 184 77 29 19 56 34 59 34 3 0 80 44 172 98 92 55 352 206 577
337 226 131 458 267 518 302 59 34 110 63 113 63 2 0 17 9 32 19 15 10 185
110 377 221 476 276 485 282 518 322 28 35 28 35 29 186 1 213 30 180 -347
397 -132 75 -257 148 -277 161 -21 13 -40 24 -43 24 -2 0 -33 17 -67 38 -35
21 -88 52 -118 69 -30 17 -95 54 -145 83 -49 29 -103 60 -120 70 -29 16 -30
19 -31 96 0 43 -3 88 -7 100 -7 20 -111 85 -145 90 -9 2 -48 -15 -87 -38 -38
-22 -74 -41 -80 -41 -5 0 -75 38 -155 85 -80 46 -152 87 -160 91 -8 3 -46 25
-84 49 l-70 43 -2 675 c-1 371 -3 703 -3 737 l-1 62 -66 37 c-66 37 -67 37
-96 20 -28 -17 -30 -17 -56 0 -37 25 -45 25 -81 3z"/>
</g>
</svg>
